<svg aria-hidden="true" style="position: absolute; width: 0; height: 0; overflow: hidden;" version="1.1" xmlns="http://www.w3.org/2000/svg" xmlns:xlink="http://www.w3.org/1999/xlink">
<defs>
<symbol id="icon-presentation" viewBox="0 0 31 32">
<path d="M0.5 3c-0.276 0-0.5 0.224-0.5 0.5v17c0 0.827 0.673 1.5 1.5 1.5h28c0.827 0 1.5-0.673 1.5-1.5v-17c0-0.276-0.224-0.5-0.5-0.5s-0.5 0.224-0.5 0.5v17c0 0.276-0.224 0.5-0.5 0.5h-28c-0.276 0-0.5-0.224-0.5-0.5v-17c0-0.276-0.224-0.5-0.5-0.5zM32.5 0h-34c-0.276 0-0.5 0.224-0.5 0.5s0.224 0.5 0.5 0.5h34c0.276 0 0.5-0.224 0.5-0.5s-0.224-0.5-0.5-0.5zM11.854 8.146c-0.183-0.183-0.475-0.196-0.674-0.031l-6 5c-0.212 0.177-0.241 0.492-0.064 0.705 0.177 0.212 0.491 0.241 0.705 0.064l5.649-4.708 5.677 5.677c0.097 0.098 0.225 0.147 0.353 0.147s0.256-0.049 0.354-0.146l7.146-7.147v3.793c0 0.276 0.224 0.5 0.5 0.5s0.5-0.224 0.5-0.5v-5c0-0.065-0.013-0.13-0.038-0.191-0.051-0.122-0.148-0.22-0.271-0.271-0.061-0.025-0.126-0.038-0.191-0.038h-5c-0.276 0-0.5 0.224-0.5 0.5s0.224 0.5 0.5 0.5h3.793l-6.793 6.793-5.646-5.647zM8.057 31.732c0.128 0.245 0.43 0.339 0.675 0.211l6.768-3.545 6.768 3.545c0.074 0.039 0.153 0.057 0.232 0.057 0.18 0 0.354-0.098 0.443-0.268 0.128-0.245 0.034-0.547-0.211-0.675l-6.893-3.61c0.098-0.091 0.161-0.219 0.161-0.364v-2.583c0-0.276-0.224-0.5-0.5-0.5s-0.5 0.224-0.5 0.5v2.583c0 0.144 0.063 0.272 0.161 0.363l-6.893 3.61c-0.245 0.129-0.339 0.431-0.211 0.676z"></path>
</symbol>
<symbol id="icon-wallet" viewBox="0 0 38 32">
<path d="M32.509 7.5c0.276 0 0.5-0.224 0.5-0.5v-1.665c0-0.903-0.735-1.638-1.638-1.638h-2.687l-0.613-1.809c-0.086-0.255-0.36-0.397-0.619-0.318l-14.553 4.424c-0.264 0.081-0.413 0.36-0.333 0.624 0.066 0.216 0.264 0.354 0.479 0.354 0.048 0 0.097-0.007 0.146-0.021l14.089-4.284 1.343 3.965c0.089 0.262 0.375 0.404 0.634 0.313 0.262-0.088 0.402-0.373 0.313-0.634l-0.547-1.615h2.349c0.352 0 0.638 0.286 0.638 0.638v1.666c-0.001 0.276 0.223 0.5 0.499 0.5zM36.5 15c-0.276 0-0.5 0.224-0.5 0.5s0.224 0.5 0.5 0.5c0.351 0 0.5 0.149 0.5 0.5v6c0 0.351-0.149 0.5-0.5 0.5h-8c-0.351 0-0.5-0.149-0.5-0.5v-5c0-0.351 0.149-0.5 0.5-0.5h6c0.276 0 0.5-0.224 0.5-0.5v-6c0-0.911-0.589-1.5-1.5-1.5h-30.5c-1.233 0-2-0.767-2-2s0.767-2 2-2h5.076l-3.026 0.998c-0.262 0.086-0.405 0.369-0.319 0.631 0.069 0.21 0.265 0.343 0.475 0.343 0.052 0 0.104-0.008 0.157-0.025l18.119-5.973c0.262-0.087 0.405-0.369 0.318-0.632-0.086-0.262-0.369-0.405-0.632-0.318l-12.1 3.99c-0.023-0.004-0.044-0.014-0.068-0.014h-8c-1.794 0-3 1.206-3 3v22c0 1.794 1.206 3 3 3h30.5c0.911 0 1.5-0.589 1.5-1.5v-5c0-0.276-0.224-0.5-0.5-0.5s-0.5 0.224-0.5 0.5v5c0 0.351-0.149 0.5-0.5 0.5h-30.5c-1.233 0-2-0.767-2-2v-19.688c0.513 0.433 1.192 0.688 2 0.688h30.5c0.351 0 0.5 0.149 0.5 0.5v5.5h-5.5c-0.911 0-1.5 0.589-1.5 1.5v5c0 0.911 0.589 1.5 1.5 1.5h8c0.911 0 1.5-0.589 1.5-1.5v-6c0-0.911-0.589-1.5-1.5-1.5zM31 20c0 0.552 0.448 1 1 1s1-0.448 1-1c0-0.552-0.448-1-1-1s-1 0.448-1 1z"></path>
</symbol>
<symbol id="icon-bargraph" viewBox="0 0 36 32">
<path d="M26 10.5v20c0 0.176 0.036 0.343 0.092 0.5h-3.184c0.056-0.157 0.092-0.324 0.092-0.5v-29c0-0.827-0.673-1.5-1.5-1.5h-7c-0.827 0-1.5 0.673-1.5 1.5v29c0 0.176 0.036 0.343 0.092 0.5h-3.184c0.056-0.157 0.092-0.324 0.092-0.5v-11c0-0.827-0.673-1.5-1.5-1.5h-7c-0.827 0-1.5 0.673-1.5 1.5v11c0 0.827 0.673 1.5 1.5 1.5h33c0.827 0 1.5-0.673 1.5-1.5v-20c0-0.827-0.673-1.5-1.5-1.5h-7c-0.827 0-1.5 0.673-1.5 1.5zM5 31h-3.5c-0.275 0-0.5-0.224-0.5-0.5v-11c0-0.276 0.225-0.5 0.5-0.5h7c0.275 0 0.5 0.224 0.5 0.5v11c0 0.276-0.225 0.5-0.5 0.5h-3.5zM14.5 31c-0.275 0-0.5-0.224-0.5-0.5v-29c0-0.276 0.225-0.5 0.5-0.5h7c0.275 0 0.5 0.224 0.5 0.5v29c0 0.276-0.225 0.5-0.5 0.5h-7zM35 10.5v20c0 0.276-0.225 0.5-0.5 0.5h-7c-0.275 0-0.5-0.224-0.5-0.5v-20c0-0.276 0.225-0.5 0.5-0.5h7c0.275 0 0.5 0.224 0.5 0.5z"></path>
</symbol>
<symbol id="icon-profile-male" viewBox="0 0 36 32">
<path d="M0.5 31.983c0.268 0.067 0.542-0.088 0.612-0.354 1.030-3.843 5.216-4.839 7.718-5.435 0.627-0.149 1.122-0.267 1.444-0.406 2.85-1.237 3.779-3.227 4.057-4.679 0.034-0.175-0.029-0.355-0.165-0.473-1.484-1.281-2.736-3.204-3.526-5.416-0.022-0.063-0.057-0.121-0.103-0.171-1.045-1.136-1.645-2.337-1.645-3.294 0-0.559 0.211-0.934 0.686-1.217 0.145-0.087 0.236-0.24 0.243-0.408 0.221-5.094 3.849-9.104 8.299-9.13 0.005 0 0.102 0.007 0.107 0.007 4.472 0.062 8.077 4.158 8.206 9.324 0.004 0.143 0.068 0.277 0.178 0.369 0.313 0.265 0.459 0.601 0.459 1.057 0 0.801-0.427 1.786-1.201 2.772-0.037 0.047-0.065 0.101-0.084 0.158-0.8 2.536-2.236 4.775-3.938 6.145-0.144 0.116-0.212 0.302-0.178 0.483 0.278 1.451 1.207 3.44 4.057 4.679 0.337 0.146 0.86 0.26 1.523 0.403 2.477 0.536 6.622 1.435 7.639 5.232 0.060 0.223 0.262 0.37 0.482 0.37 0.043 0 0.086-0.006 0.13-0.017 0.267-0.072 0.425-0.346 0.354-0.613-1.175-4.387-5.871-5.404-8.393-5.95-0.585-0.127-1.090-0.236-1.336-0.344-1.86-0.808-3.006-2.039-3.411-3.665 1.727-1.483 3.172-3.771 3.998-6.337 0.877-1.14 1.359-2.314 1.359-3.317 0-0.669-0.216-1.227-0.644-1.663-0.238-5.604-4.237-10.017-9.2-10.088l-0.149-0.002c-4.873 0.026-8.889 4.323-9.24 9.83-0.626 0.46-0.944 1.105-0.944 1.924 0 1.183 0.669 2.598 1.84 3.896 0.809 2.223 2.063 4.176 3.556 5.543-0.403 1.632-1.55 2.867-3.414 3.676-0.241 0.105-0.721 0.22-1.277 0.352-2.541 0.604-7.269 1.729-8.453 6.147-0.071 0.267 0.087 0.54 0.354 0.612z"></path>
</symbol>
<symbol id="icon-chat" viewBox="0 0 42 32">
<path d="M35.652 14.023c-0.264-0.082-0.544 0.062-0.628 0.325-0.083 0.263 0.062 0.544 0.325 0.628 3.908 1.245 5.651 3.102 5.651 6.024 0 2.599-2.371 4.616-3.783 5.588-0.136 0.094-0.217 0.247-0.217 0.412v3.823c-0.73-0.272-2.003-0.89-3.126-2.155-0.117-0.131-0.295-0.191-0.468-0.159-0.285 0.055-0.576 0.133-0.871 0.212-0.51 0.137-1.036 0.279-1.535 0.279-2.568 0-4.366-0.552-6.204-1.903-0.224-0.164-0.535-0.115-0.699 0.107-0.164 0.223-0.116 0.535 0.106 0.699 2.027 1.49 3.996 2.097 6.797 2.097 0.631 0 1.223-0.159 1.795-0.313 0.178-0.049 0.355-0.097 0.53-0.138 1.869 1.974 3.983 2.423 4.075 2.441 0.033 0.007 0.066 0.010 0.1 0.010 0.114 0 0.227-0.039 0.316-0.113 0.117-0.095 0.184-0.237 0.184-0.387v-4.239c2.582-1.841 4-4.057 4-6.261 0-3.381-2.017-5.598-6.348-6.977zM33 13.5c0-7.696-7.018-13.5-16.323-13.5-9.352 0-16.677 5.931-16.677 13.502 0 4.539 3.211 7.791 6 9.759v6.636c0 0.17 0.086 0.327 0.228 0.42 0.083 0.053 0.177 0.080 0.272 0.080 0.069 0 0.139-0.015 0.205-0.044 0.146-0.065 3.559-1.616 6.479-4.809 1.265 0.235 2.696 0.461 3.994 0.461 9.463 0 15.822-5.026 15.822-12.505zM17.177 25.005c-1.31 0-2.799-0.251-4.083-0.496-0.173-0.031-0.351 0.028-0.468 0.159-2.050 2.312-4.459 3.781-5.626 4.414v-6.082c0-0.165-0.081-0.318-0.217-0.412-2.638-1.815-5.783-4.863-5.783-9.086 0-7.011 6.886-12.502 15.677-12.502 8.736 0 15.323 5.374 15.323 12.5 0 6.882-5.957 11.505-14.823 11.505zM16.5 11.5c-1.103 0-2 0.897-2 2s0.897 2 2 2 2-0.897 2-2-0.897-2-2-2zM16.5 14.5c-0.551 0-1-0.448-1-1s0.449-1 1-1 1 0.448 1 1-0.449 1-1 1zM23.5 11.5c-1.103 0-2 0.897-2 2s0.897 2 2 2 2-0.897 2-2-0.897-2-2-2zM23.5 14.5c-0.551 0-1-0.448-1-1s0.449-1 1-1 1 0.448 1 1-0.449 1-1 1zM9.5 11.595c-1.103 0-2 0.897-2 2s0.897 2 2 2 2-0.897 2-2-0.897-2-2-2zM9.5 14.595c-0.551 0-1-0.448-1-1s0.449-1 1-1 1 0.448 1 1-0.449 1-1 1z"></path>
</symbol>
<symbol id="icon-clock" viewBox="0 0 32 32">
<path d="M16 32c8.822 0 16-7.178 16-16s-7.178-16-16-16-16 7.178-16 16 7.178 16 16 16zM16 1c8.271 0 15 6.729 15 15s-6.729 15-15 15-15-6.729-15-15 6.729-15 15-15zM20.061 21.768c0.098 0.098 0.226 0.146 0.354 0.146s0.256-0.049 0.354-0.146c0.195-0.195 0.195-0.512 0-0.707l-4.769-4.768v-6.974c0-0.276-0.224-0.5-0.5-0.5s-0.5 0.224-0.5 0.5v7.181c0 0.133 0.053 0.26 0.146 0.354l4.915 4.914zM3 16c0 0.552 0.448 1 1 1s1-0.448 1-1c0-0.552-0.448-1-1-1s-1 0.448-1 1zM27 16c0 0.552 0.448 1 1 1s1-0.448 1-1c0-0.552-0.448-1-1-1s-1 0.448-1 1zM15 4c0 0.552 0.448 1 1 1s1-0.448 1-1c0-0.552-0.448-1-1-1s-1 0.448-1 1zM15 28c0 0.552 0.448 1 1 1s1-0.448 1-1c0-0.552-0.448-1-1-1s-1 0.448-1 1zM7 8c0 0.552 0.448 1 1 1s1-0.448 1-1c0-0.552-0.448-1-1-1s-1 0.448-1 1zM23 24c0 0.552 0.448 1 1 1s1-0.448 1-1c0-0.552-0.448-1-1-1s-1 0.448-1 1zM24 8c0 0.552 0.448 1 1 1s1-0.448 1-1c0-0.552-0.448-1-1-1s-1 0.448-1 1zM7 24c0 0.552 0.448 1 1 1s1-0.448 1-1c0-0.552-0.448-1-1-1s-1 0.448-1 1z"></path>
</symbol>
</defs>
</svg>
